{"accessors":[{"bufferView":0,"componentType":5125,"count":36,"max":[35],"min":[0],"type":"SCALAR"},{"bufferView":1,"componentType":5126,"count":36,"max":[1,1,1],"min":[-1,-1,-1],"type":"VEC3"},{"bufferView":2,"componentType":5126,"count":36,"max":[50,50,100],"min":[-50,-50,0],"type":"VEC3"},{"bufferView":3,"componentType":5126,"count":36,"max":[1,1],"min":[0,0],"type":"VEC2"}],"asset":{"extras":{"GOOGLE_processor_version":294144208},"generator":"THREE.GLTFExporter","version":"2.0"},"bufferViews":[{"buffer":0,"byteLength":144,"byteOffset":0,"target":34963},{"buffer":0,"byteLength":432,"byteOffset":144,"byteStride":12,"target":34962},{"buffer":0,"byteLength":432,"byteOffset":576,"byteStride":12,"target":34962},{"buffer":0,"byteLength":288,"byteOffset":1008,"byteStride":8,"target":34962}],"buffers":[{"byteLength":1296,"uri":"data:application/octet-stream;base64,"}],"cameras":[{"perspective":{"yfov":0.7853981633974483,"znear":0.1000000014901161},"type":"perspective"}],"extensions":{"KHR_lights_punctual":{"lights":[{"color":[1,0.9333333333333333,0.8666666666666667],"intensity":0.25,"name":"headLight","type":"directional"},{"color":[1,0.9333333333333333,0.8666666666666667],"intensity":0.324999988079071,"name":"keyLight","type":"directional"}]}},"extensionsUsed":["GOOGLE_backgrounds","GOOGLE_camera_settings","KHR_lights_punctual"],"extras":{"GOOGLE_initial_camera_motion":{"motionPath":"FULL_ROTATION"},"GOOGLE_lighting_rig":{"disableShadows":false}},"materials":[{"name":"Unnamed","pbrMetallicRoughness":{"metallicFactor":1,"roughnessFactor":0.6666666666666666}}],"meshes":[{"primitives":[{"attributes":{"NORMAL":1,"POSITION":2,"TEXCOORD_0":3},"indices":0,"material":0,"mode":4}]}],"nodes":[{"matrix":[1,0,0,0,0,2.028159137428297e-7,-0.9999999061668083,0,0,0.9999999061668083,2.028159137428297e-7,0,0,0,0,1],"name":"×þ×ü1"},{"matrix":[1,0,0,0,0,2.028159137428297e-7,-0.9999999061668083,0,0,0.9999999061668083,2.028159137428297e-7,0,0,0,0,1],"name":"¡¡×ý×û2"},{"mesh":0,"name":"3058153017952_0"},{"children":[2],"matrix":[1,0,0,0,0,2.028159137428297e-7,-0.9999999061668083,0,0,0.9999999061668083,2.028159137428297e-7,0,-16.04024887084961,0,1.023426055908203,1],"name":"Box0013"},{"children":[0,1,3],"matrix":[1,0,0,0,0,1,0,0,0,0,1,0,16.04024887084961,-49.99999530834042,-1.023436196703891,1]},{"children":[4]},{"children":[7]},{"children":[8],"extras":{"isTransformNode":1},"translation":[-0.2500000272456807,-0.2500000272456842,0.2500000272456771]},{"children":[5],"translation":[0.2500000272456807,0.2500000272456842,-0.2500000272456771]},{"camera":0,"children":[10],"rotation":[-0.221924054279278,-0.2518950318538156,-0.05946428056213491,0.9400864887853888],"translation":[-189.9065880778902,189.4065880233989,328.7454242082626]},{"extensions":{"KHR_lights_punctual":{"light":0}},"extras":{"isHeadLight":1},"name":"headLightNode","translation":[-95.26278845708163,47.63139422854081,47.63139422854081]},{"extensions":{"KHR_lights_punctual":{"light":1}},"extras":{"isKeyLight":1},"name":"keyLightNode","rotation":[-0.7505326882858236,-0.3752663441429118,0,0.5439447166468927],"scale":[0,0,96.21541634165244],"translation":[-96.21541634165244,192.4308326833049,-96.21541634165244]}],"scene":0,"scenes":[{"extensions":{"GOOGLE_backgrounds":{"color":[0,0.5137254901960784,0.5607843137254902]},"GOOGLE_camera_settings":{"pivot":[-0.2500000272456191,-0.2500000272457328,0.2500000272454486]}},"extras":{"GOOGLE_camera_index":{"cameraIndex":0,"nodeIndex":9},"GOOGLE_geometry_data":{"stats":{"centroid":[0,-1.381610875089084e-15,-4.934324553889584e-15],"radius":95.26278845708163,"stdev":87.83100107106014},"visualCenterPoint":[-0.2500000272456807,-0.2500000272456842,0.2500000272456771]},"GOOGLE_hemi_light":{"groundColor":[0,0.5137254901960784,0.5607843137254902]}},"name":"AuxScene","nodes":[6,9,11]}]}